solid cylinder
  facet normal 0 0 1
    outer loop
      vertex 0 0 1
      vertex 1 0 1
      vertex 0.866025 0.5 1
    endloop
  endfacet
  facet normal 0 0 1
    outer loop
      vertex 0 0 1
      vertex 0.866025 0.5 1
      vertex 0.5 0.866025 1
    endloop
  endfacet
  facet normal 0 0 1
    outer loop
      vertex 0 0 1
      vertex 0.5 0.866025 1
      vertex 0 1 1
    endloop
  endfacet
  facet normal 0 0 1
    outer loop
      vertex 0 0 1
      vertex 0 1 1
      vertex -0.5 0.866025 1
    endloop
  endfacet
  facet normal 0 0 1
    outer loop
      vertex 0 0 1
      vertex -0.5 0.866025 1
      vertex -0.866025 0.5 1
    endloop
  endfacet
  facet normal 0 0 -1
    outer loop
      vertex 0 0 -1
      vertex 0.866025 0.5 -1
      vertex 1 0 -1
    endloop
  endfacet
  facet normal 0 0 -1
    outer loop
      vertex 0 0 -1
      vertex 0.5 0.866025 -1
      vertex 0.866025 0.5 -1
    endloop
  endfacet
  facet normal 0 0 -1
    outer loop
      vertex 0 0 -1
      vertex 0 1 -1
      vertex 0.5 0.866025 -1
    endloop
  endfacet
  facet normal 0 0 -1
    outer loop
      vertex 0 0 -1
      vertex -0.5 0.866025 -1
      vertex 0 1 -1
    endloop
  endfacet
  facet normal 0 0 -1
    outer loop
      vertex 0 0 -1
      vertex -0.866025 0.5 -1
      vertex -0.5 0.866025 -1
    endloop
  endfacet
endsolid cylinder